<?xml version="1.0" encoding="iso-8859-1"?>
<!-- Generator: Adobe Illustrator 19.0.0, SVG Export Plug-In . SVG Version: 6.00 Build 0)  -->
<svg version="1.1" id="Capa_1" xmlns="http://www.w3.org/2000/svg" xmlns:xlink="http://www.w3.org/1999/xlink" x="0px" y="0px"
	 viewBox="0 0 512 512" style="enable-background:new 0 0 512 512;" xml:space="preserve">
<g>
	<polygon style="fill:#002874;" points="228.891,313.192 239.238,489.167 274.433,489.167 284.402,339.588 	"/>
	<rect x="195.245" y="480.368" style="fill:#002874;" width="123.183" height="17.598"/>
</g>
<path style="fill:#168DE2;" d="M1.672,190.009v149.579c51.033,0,51.033,17.598,102.066,17.598s51.033-17.598,102.066-17.598
	s51.033,17.598,102.066,17.598s51.033-17.598,102.066-17.598S460.967,357.186,512,357.186V194.409L1.672,190.009z"/>
<path style="fill:#62BEFF;" d="M146.57,163.516c25.393-1.857,53.083-3.08,82.233-3.52h52.793c34.826,0.554,67.574,2.2,96.786,4.707
	l52.889,6.027c48.71,7.215,79.057,17.386,79.057,28.658c0,21.865-114.234,39.594-255.164,39.594S0,221.254,0,199.389
	c0-11.79,33.171-22.366,85.806-29.617L146.57,163.516z"/>
<g>
	<path style="fill:#5B5B5B;" d="M300.83,128.418h-87.988c-14.58,0-26.396-11.817-26.396-26.396V49.229h17.598v52.793
		c0,4.857,3.942,8.799,8.799,8.799h87.988c4.857,0,8.799-3.942,8.799-8.799V49.229h17.598v52.793
		C327.226,116.601,315.409,128.418,300.83,128.418z"/>
	<rect x="248.037" y="49.229" style="fill:#5B5B5B;" width="17.598" height="140.78"/>
</g>
<g>
	<rect x="186.446" y="14.034" style="fill:#FF8030;" width="17.598" height="17.598"/>
	<rect x="248.037" y="14.034" style="fill:#FF8030;" width="17.598" height="17.598"/>
	<rect x="309.628" y="14.034" style="fill:#FF8030;" width="17.598" height="17.598"/>
</g>
<rect x="195.245" y="181.21" style="fill:#5B5B5B;" width="123.183" height="17.598"/>
<g>
	<rect x="402.015" y="146.015" style="fill:#168DE2;" width="8.799" height="43.994"/>
	<rect x="388.817" y="185.566" style="fill:#168DE2;" width="35.195" height="8.799"/>
</g>
<path style="fill:#62BEFF;" d="M406.415,154.814c-14.58,0-26.396-11.817-26.396-26.396V93.223h52.793v35.195
	C432.811,142.997,420.994,154.814,406.415,154.814z"/>
<rect x="380.019" y="93.223" style="fill:#D6EAF1;" width="52.793" height="17.598"/>
<g>
	<rect x="111.656" y="146.015" style="fill:#168DE2;" width="8.799" height="43.994"/>
	<rect x="98.458" y="185.566" style="fill:#168DE2;" width="35.195" height="8.799"/>
</g>
<path style="fill:#62BEFF;" d="M116.056,154.814c-14.58,0-26.396-11.817-26.396-26.396V93.223h52.793v35.195
	C142.452,142.997,130.635,154.814,116.056,154.814z"/>
<rect x="89.659" y="93.223" style="fill:#D6EAF1;" width="52.793" height="17.598"/>
<g>
	<rect x="199.644" y="260.399" style="fill:#62BEFF;" width="8.799" height="52.793"/>
	<rect x="305.229" y="260.399" style="fill:#62BEFF;" width="8.799" height="70.39"/>
	<rect x="410.814" y="251.601" style="fill:#62BEFF;" width="8.799" height="61.591"/>
	<rect x="102.858" y="260.399" style="fill:#62BEFF;" width="8.799" height="70.39"/>
</g>
<g>
	<rect x="186.446" y="49.229" style="fill:#FFCB5A;" width="17.598" height="43.994"/>
	<rect x="248.037" y="49.229" style="fill:#FFCB5A;" width="17.598" height="43.994"/>
	<rect x="309.628" y="49.229" style="fill:#FFCB5A;" width="17.598" height="43.994"/>
</g>
<g>
</g>
<g>
</g>
<g>
</g>
<g>
</g>
<g>
</g>
<g>
</g>
<g>
</g>
<g>
</g>
<g>
</g>
<g>
</g>
<g>
</g>
<g>
</g>
<g>
</g>
<g>
</g>
<g>
</g>
</svg>
